HIERARCHY
ROOT RootJoint
{
    OFFSET   0.000000   0.000000   0.000000
    CHANNELS 6 Xposition Yposition Zposition Xrotation Yrotation Zrotation
    JOINT pelvis_lowerback
    {
        OFFSET   0.000000   0.093605   0.000000
        CHANNELS 3 Xrotation Yrotation Zrotation
        JOINT lowerback_torso
        {
            OFFSET   0.000000   0.100000   0.000000
            CHANNELS 3 Xrotation Yrotation Zrotation
            JOINT torso_head
            {
                OFFSET   0.000000   0.282350   0.000000
                CHANNELS 3 Xrotation Yrotation Zrotation
                End Site
                {
                    OFFSET   0.000000   0.192650   0.000000
                }
            }
            JOINT rTorso_Clavicle
            {
                OFFSET  -0.001000   0.157500   0.000000
                CHANNELS 3 Xrotation Yrotation Zrotation
                JOINT rShoulder
                {
                    OFFSET  -0.117647   0.000000   0.000000
                    CHANNELS 3 Xrotation Yrotation Zrotation
                    JOINT rElbow
                    {
                        OFFSET  -0.245000   0.000000   0.000000
                        CHANNELS 3 Xrotation Yrotation Zrotation
                        JOINT rWrist
                        {
                            OFFSET  -0.240000   0.000000   0.000000
                            CHANNELS 3 Xrotation Yrotation Zrotation
                            End Site
                            {
                                OFFSET  -0.116353  -0.002500   0.000000
                            }
                        }
                    }
                }
            }
            JOINT lTorso_Clavicle
            {
                OFFSET   0.001000   0.157500   0.000000
                CHANNELS 3 Xrotation Yrotation Zrotation
                JOINT lShoulder
                {
                    OFFSET   0.117647   0.000000   0.000000
                    CHANNELS 3 Xrotation Yrotation Zrotation
                    JOINT lElbow
                    {
                        OFFSET   0.245000   0.000000   0.000000
                        CHANNELS 3 Xrotation Yrotation Zrotation
                        JOINT lWrist
                        {
                            OFFSET   0.240000   0.000000   0.000000
                            CHANNELS 3 Xrotation Yrotation Zrotation
                            End Site
                            {
                                OFFSET   0.116353  -0.002500   0.000000
                            }
                        }
                    }
                }
            }
        }
    }
    JOINT rHip
    {
        OFFSET  -0.100000  -0.051395   0.000000
        CHANNELS 3 Xrotation Yrotation Zrotation
        JOINT rKnee
        {
            OFFSET   0.000000  -0.410000   0.000000
            CHANNELS 3 Xrotation Yrotation Zrotation
            JOINT rAnkle
            {
                OFFSET   0.000000  -0.390000   0.000000
                CHANNELS 3 Xrotation Yrotation Zrotation
                JOINT rToeJoint
                {
                    OFFSET   0.000000  -0.050000   0.130000
                    CHANNELS 3 Xrotation Yrotation Zrotation
                    End Site
                    {
                        OFFSET  -0.010000   0.002000   0.060000
                    }
                }
            }
        }
    }
    JOINT lHip
    {
        OFFSET   0.100000  -0.051395   0.000000
        CHANNELS 3 Xrotation Yrotation Zrotation
        JOINT lKnee
        {
            OFFSET   0.000000  -0.410000   0.000000
            CHANNELS 3 Xrotation Yrotation Zrotation
            JOINT lAnkle
            {
                OFFSET   0.000000  -0.390000   0.000000
                CHANNELS 3 Xrotation Yrotation Zrotation
                JOINT lToeJoint
                {
                    OFFSET   0.000000  -0.050000   0.130000
                    CHANNELS 3 Xrotation Yrotation Zrotation
                    End Site
                    {
                        OFFSET   0.010000   0.002000   0.060000
                    }
                }
            }
        }
    }
}
MOTION
Frames: 14
Frame Time:   0.008333
 -2.376719   0.925631   3.975860   0.000000   0.000000   0.000000   0.000000   0.000000   0.000000   0.000000   0.000000   0.000000   0.000000   0.000000   0.000000   0.000000   0.000000   0.000000   0.000000   0.000000   0.000000   0.000000   0.000000   0.000000   0.000000   0.000000   0.000000   0.000000   0.000000   0.000000   0.000000   0.000000   0.000000   0.000000   0.000000   0.000000   0.000000   0.000000   0.000000   0.000000   0.000000   0.000000   0.000000   0.000000   0.000000   0.000000   0.000000   0.000000   0.000000   0.000000   0.000000   0.000000   0.000000   0.000000   0.000000   0.000000   0.000000   0.000000   0.000000   0.000000   0.000000   0.000000   0.000000
 -2.376679   0.925926   3.975572   0.302876  -0.005471   0.133626  -0.314921   0.046734  -0.288913   0.047438  -0.159086   0.129096   0.023647  -0.068510   0.112411   0.174499  -0.407760  -0.036340   0.599757   0.273076   2.311043   0.017277   0.876369  -0.006283   0.328724  -0.244554  -2.572289   0.244277   0.340853   0.093801   0.560780   0.173785  -2.183246   0.018629  -1.005861   0.007472   0.355628   0.085654   2.334803  -0.745786  -0.335728  -0.133017   1.093824  -0.000049  -0.003273  -0.520524  -0.433156  -0.196963  -0.001184  -0.000002   0.000008  -0.687233   0.189442  -0.178981   1.149140   0.000480   0.001823  -0.314988   0.360423  -0.327768  -0.337614  -0.001091  -0.001606
 -2.376597   0.926442   3.975486   0.553983  -0.034807   0.268460  -0.609343   0.090972  -0.574133   0.114954  -0.314668   0.261914   0.064570  -0.138890   0.220290   0.344242  -0.814564   0.608219   1.150563   0.553932   5.009879   0.038600   1.719628  -0.010460   0.686563  -0.250174  -4.406862   0.483681   0.701057  -0.459484   1.094976   0.333529  -4.735123   0.041225  -1.961855   0.012622   0.742944  -0.044186   3.956548  -1.453145  -0.671105  -0.269932   2.224009  -0.000218  -0.006262  -1.001873  -0.844864  -0.387076  -0.000192  -0.000000  -0.000000  -1.270288   0.382322  -0.381058   2.358029   0.001204   0.003100  -0.599687   0.703147  -0.631722  -0.644710  -0.001844  -0.002654
 -2.376475   0.926813   3.975573   0.786954  -0.073126   0.390702  -0.901558   0.129032  -0.831660   0.172891  -0.462803   0.397167   0.107147  -0.205358   0.318691   0.509837  -1.205471   1.686562   1.650182   0.831810   7.881324   0.058363   2.504502  -0.012646   1.033182  -0.217579  -5.456743   0.714072   1.047400  -1.431900   1.600475   0.468825  -7.457702   0.062052  -2.851258   0.015671   1.117476  -0.197780   4.833089  -2.124452  -0.984955  -0.396380   3.290934  -0.000451  -0.008351  -1.451919  -1.227998  -0.568203  -0.002038  -0.000003   0.000012  -1.766896   0.563930  -0.587438   3.520189   0.001980   0.003794  -0.862720   1.024266  -0.913894  -0.928175  -0.002347  -0.003292
 -2.376320   0.926779   3.975789   1.010254  -0.113189   0.500260  -1.191152   0.159662  -1.060778   0.215125  -0.606284   0.535491   0.147090  -0.267510   0.409475   0.675817  -1.580841   3.022071   2.103415   1.105973  10.802270   0.074349   3.232962  -0.013411   1.362648  -0.191046  -5.928888   0.937516   1.375010  -2.654225   2.079614   0.576606 -10.232599   0.078812  -3.678557   0.017222   1.473848  -0.343463   5.163413  -2.766036  -1.277095  -0.511966   4.284964  -0.000692  -0.009632  -1.873815  -1.584158  -0.740433  -0.009820  -0.000013   0.000057  -2.194787   0.734332  -0.794786   4.620961   0.002711   0.004102  -1.106957   1.325005  -1.175899  -1.192665  -0.002665  -0.003654
 -2.376163   0.926208   3.976000   1.206883  -0.106205   0.613052  -1.448923   0.164370  -1.279293   0.253027  -0.760640   0.671219   0.182847  -0.326024   0.493752   0.844404  -1.941764   4.500914   2.514416   1.374501  13.696012   0.085906   3.907997  -0.013348   1.673029  -0.183361  -6.008249   1.153096   1.672234  -4.010136   2.532071   0.650793 -12.980084   0.090944  -4.450310   0.017861   1.812078  -0.483810   5.130841  -3.366821  -1.550981  -0.630741   5.212961  -0.000918  -0.009942  -2.269090  -1.915812  -0.904317  -0.021328  -0.000026   0.000106  -2.640292   0.896612  -0.980770   5.495900   0.002919   0.004398  -1.435892   1.614331  -1.393547  -2.793211  -0.005966  -0.009406
 -2.375986   0.924987   3.976215   1.352843  -0.102207   0.729488  -1.665933   0.167628  -1.480496   0.300746  -0.909270   0.802319   0.218629  -0.380250   0.571219   1.015024  -2.281082   6.037612   2.886207   1.640955  16.508889   0.093257   4.535243  -0.012746   1.966851  -0.187887  -5.832655   1.361075   1.944299  -5.422833   2.958283   0.696766 -15.651998   0.098583  -5.170313   0.017860   2.133648  -0.620929   4.863906  -3.914699  -1.802944  -0.751513   6.084735  -0.001126  -0.009917  -2.639137  -2.223749  -1.059660  -0.034752  -0.000037   0.000151  -3.112947   1.035821  -1.161256   6.244815   0.002930   0.004278  -1.769143   1.866801  -1.597459  -4.528976  -0.008390  -0.013678
 -2.375953   0.923794   3.976419   1.422236  -0.037361   0.828212  -1.781699   0.138913  -1.532827   0.361537  -1.141492   0.797987   0.234776  -0.613611   0.556174   1.243719  -2.480611   6.994205   3.447811   1.947649  19.198357   0.100735   5.320662  -0.014835   2.174395  -0.239416  -4.640251   1.696051   2.323775  -6.287628   3.298596   0.642321 -18.338287   0.106268  -6.045573   0.019016   2.427077  -0.792984   3.852217  -4.357353  -2.080752  -0.747273   7.032876  -0.002253  -0.009660  -3.549162  -2.685740  -1.204093  -0.165686  -0.000028   0.000907  -3.101057   1.269346  -1.324300   6.164191   0.002274   0.003225  -2.314288   2.111429  -1.600305  -4.172847  -0.006603  -0.009260
 -2.376086   0.922638   3.976322   1.529237   0.101239   0.920399  -1.882781   0.086893  -1.558247   0.416848  -1.380692   0.772505   0.247127  -0.842431   0.537439   1.452741  -2.645225   7.688382   3.954651   2.271010  21.575870   0.101692   6.064781  -0.016216   2.388313  -0.214080  -3.516842   2.005384   2.657827  -6.949123   3.608311   0.562339 -20.752957   0.107620  -6.875957   0.019480   2.716664  -1.062681   2.886364  -4.804136  -2.388975  -0.698358   7.934337  -0.003419  -0.008954  -4.405156  -3.168166  -1.368051  -0.307750   0.000006   0.001547  -3.081908   1.477952  -1.474238   5.926434   0.001634   0.001891  -2.771504   2.325402  -1.624034  -3.847236  -0.005118  -0.005823
 -2.376418   0.921526   3.975978   1.659598   0.349506   1.012575  -1.965905   0.008250  -1.586282   0.473310  -1.629626   0.737067   0.259132  -1.057512   0.522669   1.644785  -2.793852   8.198942   4.412510   2.592086  23.695120   0.098419   6.761673  -0.017085   2.595609  -0.168032  -2.610079   2.284733   2.943847  -7.457233   3.886499   0.461822 -22.926552   0.104817  -7.658227   0.019285   2.995278  -1.368350   2.096700  -5.195440  -2.647232  -0.579932   8.820270  -0.004752  -0.007023  -5.188848  -3.572883  -1.512643  -0.176131  -0.000116   0.000757  -3.103101   1.661517  -1.621437   5.649431   0.001102   0.000502  -3.158797   2.513584  -1.661704  -3.549826  -0.003911  -0.003065
 -2.376883   0.921103   3.975424   1.752338   0.772727   0.884359  -1.989061  -0.116221  -1.430580   0.555162  -1.903867   0.769020   0.273828  -1.259702   0.515628   1.823115  -2.932920   8.585483   4.828197   2.900185  25.590531   0.092839   7.408553  -0.017735   2.792792  -0.140442  -1.920064   2.528862   3.173007  -7.912703   4.131106   0.334551 -24.928282   0.099921  -8.397396   0.018526   3.262348  -1.700442   1.456972  -5.640988  -2.783366  -0.431651   9.602145  -0.004097  -0.003502  -5.855894  -3.867813  -1.744888  -0.145348  -0.000051   0.000604  -3.156758   1.831161  -1.548533   5.389924   0.000682  -0.000937  -3.346667   2.699546  -1.736638  -3.280680  -0.002904  -0.000606
 -2.377533   0.920712   3.974808   1.824185   1.241119   0.782454  -1.993400  -0.221457  -1.348143   0.652043  -2.157912   0.799811   0.293665  -1.447295   0.517653   1.989662  -3.061474   8.869394   5.206018   3.199930  27.317530   0.085796   8.014066  -0.018044   2.982760  -0.109871  -1.336220   2.752228   3.383165  -8.233605   4.352636   0.208153 -26.733167   0.093295  -9.089902   0.017217   3.516651  -2.039875   0.923888  -6.039928  -2.984828  -0.315512  10.339001  -0.003522  -0.000943  -6.534213  -4.205654  -1.896880  -0.014654   0.000040   0.000404  -3.210717   2.003051  -1.499482   5.144489   0.000370  -0.002116  -3.481062   2.881130  -1.812419  -3.031613  -0.002118   0.001310
 -2.378341   0.920322   3.974134   1.888401   1.742834   0.690689  -1.988558  -0.310151  -1.295589   0.751189  -2.387154   0.815553   0.314312  -1.621942   0.516942   2.143472  -3.179229   9.072694   5.549248   3.488782  28.885517   0.078045   8.579702  -0.018059   3.165198  -0.079365  -0.857863   2.959587   3.583734  -8.462168   4.555604   0.090719 -28.365806   0.085784  -9.734925   0.015515   3.758050  -2.360912   0.507817  -6.403531  -3.183107  -0.200660  11.017907  -0.003045   0.001183  -7.178386  -4.523614  -2.037776   0.104607   0.000079   0.000310  -3.274272   2.166567  -1.456536   4.912305   0.000148  -0.003038  -3.593980   3.052069  -1.884799  -2.802554  -0.001519   0.002721
 -2.378912   0.920503   3.973735   1.929938   2.077478   0.820377  -1.958043  -0.460459  -1.378837   0.792850  -2.497693   0.747598   0.355858  -1.748685   0.363501   2.167679  -3.317232   9.052117   5.669801   3.769244  30.171938   0.068564   9.102566  -0.015862   3.283478  -0.002776   0.044440   3.121384   3.941488  -8.471121   4.761134   0.049772 -29.767288   0.079157 -10.535752   0.013478   3.930090  -2.568758  -0.249540  -6.557480  -3.228125  -0.306308  11.270572  -0.002463   0.001576  -7.488096  -4.686759  -2.163506   0.355657   0.000204   0.000482  -3.230065   2.277766  -1.544993   4.719214   0.000175  -0.003177  -4.057916   3.219223  -1.866434  -2.347392  -0.001470   0.004515
